<svg xmlns="http://www.w3.org/2000/svg" viewBox="0 0 32 32" fill="none" aria-hidden="true">
  <path
    fill="#8B2A28"
    d="M16 28c-.35 0-.7-.12-1-.35C10.5 24.2 4 18.4 4 12.5 4 8.9 6.7 6 10.2 6c2 0 3.8 1 5 2.5C16.4 7 18.2 6 20.2 6 23.7 6 26.5 8.9 26.5 12.5c0 5.9-6.5 11.7-11 15.15-.3.23-.65.35-1 .35Z"
  />
  <path
    stroke="#B8862B"
    stroke-linecap="round"
    stroke-width="1.2"
    d="M16 9v4M13 11h6"
  />
  <path
    fill="#B8862B"
    d="M16 4.5c.6 1.2 1.4 2 2.4 2.4-.4 1-.4 2 0 3-1.2-.6-2.4-.6-3.6 0 .4-1 .4-2 0-3 1-.4 1.8-1.2 2.4-2.4Z"
  />
</svg>
